<svg width="95" height="20" viewBox="0 0 95 20" fill="none" xmlns="http://www.w3.org/2000/svg">
<path d="M13.3125 7.30682C13.2898 7.00568 13.2273 6.74148 13.125 6.5142C13.0227 6.28125 12.8778 6.08523 12.6903 5.92614C12.5028 5.76136 12.2699 5.6392 11.9915 5.55966C11.7188 5.47443 11.3977 5.43182 11.0284 5.43182C10.233 5.43182 9.50852 5.62216 8.85511 6.00284C8.2017 6.38352 7.65341 6.93182 7.21023 7.64773C6.77273 8.36364 6.47159 9.22727 6.30682 10.2386C6.13636 11.2614 6.12216 12.1364 6.2642 12.8636C6.40625 13.5909 6.71307 14.1477 7.18466 14.5341C7.66193 14.9205 8.30682 15.1136 9.11932 15.1136C9.84659 15.1136 10.4744 15.0085 11.0028 14.7983C11.5313 14.5881 11.9545 14.2898 12.2727 13.9034C12.5909 13.517 12.7898 13.0625 12.8693 12.5398L13.6875 12.625H9.69886L10.2443 9.25H17.983L17.5909 11.6705C17.3295 13.2614 16.767 14.6222 15.9034 15.7528C15.0455 16.8778 13.9773 17.7415 12.6989 18.3438C11.4205 18.9403 10.017 19.2386 8.48864 19.2386C6.79545 19.2386 5.36648 18.8778 4.2017 18.1562C3.03693 17.4347 2.20455 16.4062 1.70455 15.071C1.21023 13.7358 1.11364 12.1477 1.41477 10.3068C1.65341 8.86364 2.08523 7.58523 2.71023 6.47159C3.34091 5.35795 4.1108 4.41761 5.01989 3.65057C5.92898 2.87784 6.93182 2.29545 8.02841 1.90341C9.125 1.50568 10.2614 1.30682 11.4375 1.30682C12.4659 1.30682 13.4006 1.45455 14.2415 1.75C15.0824 2.03977 15.8011 2.45454 16.3977 2.99432C16.9943 3.52841 17.4403 4.16193 17.7358 4.89489C18.0369 5.62784 18.1591 6.43182 18.1023 7.30682H13.3125ZM24.88 19.2386C23.4822 19.2386 22.3232 18.9716 21.4027 18.4375C20.4822 17.8977 19.8345 17.125 19.4595 16.1193C19.0845 15.108 19.0163 13.8977 19.255 12.4886C19.4822 11.1364 19.951 9.95455 20.6612 8.94318C21.3771 7.93182 22.2777 7.14489 23.3629 6.58239C24.4538 6.01989 25.6754 5.73864 27.0277 5.73864C28.0163 5.73864 28.8828 5.89205 29.6271 6.19886C30.3771 6.50568 30.9879 6.9517 31.4595 7.53693C31.9311 8.12216 32.2493 8.82955 32.4141 9.65909C32.5845 10.483 32.5845 11.4148 32.4141 12.4545L32.2436 13.5455H20.5504L20.9595 10.9545H28.3232C28.38 10.5795 28.343 10.25 28.2124 9.96591C28.0874 9.67614 27.8857 9.4517 27.6072 9.29261C27.3345 9.12784 27.005 9.04545 26.6186 9.04545C26.2322 9.04545 25.8686 9.12784 25.5277 9.29261C25.1925 9.45739 24.9055 9.6875 24.6669 9.98295C24.4339 10.2784 24.2777 10.625 24.1982 11.0227L23.6868 13.75C23.6186 14.1705 23.6442 14.5455 23.7635 14.875C23.8828 15.2045 24.0902 15.4631 24.3857 15.6506C24.6811 15.8381 25.0618 15.9318 25.5277 15.9318C25.8459 15.9318 26.147 15.8892 26.4311 15.804C26.7209 15.7131 26.9766 15.5824 27.1982 15.4119C27.4254 15.2358 27.6072 15.0227 27.7436 14.7727H32.0391C31.7322 15.6818 31.2464 16.4716 30.5817 17.142C29.9226 17.8068 29.1101 18.3239 28.1442 18.6932C27.1839 19.0568 26.0959 19.2386 24.88 19.2386ZM39.2088 11.6364L37.9815 19H33.277L35.4588 5.90909H39.9247L39.5156 8.39773H39.652C40.0668 7.5625 40.6719 6.91193 41.4673 6.44602C42.2685 5.97443 43.152 5.73864 44.1179 5.73864C45.044 5.73864 45.8139 5.94886 46.4276 6.36932C47.0412 6.78977 47.4759 7.36932 47.7315 8.10795C47.9872 8.84659 48.0327 9.69318 47.8679 10.6477L46.4702 19H41.7656L42.9929 11.6364C43.1009 10.9886 43.0213 10.4801 42.7543 10.1108C42.4929 9.74148 42.0611 9.55682 41.4588 9.55682C41.0781 9.55682 40.7287 9.64205 40.4105 9.8125C40.098 9.97727 39.8366 10.2159 39.6264 10.5284C39.4219 10.8352 39.2827 11.2045 39.2088 11.6364ZM52.3722 19.2045C51.5426 19.2045 50.8295 19.0682 50.233 18.7955C49.642 18.517 49.2102 18.0966 48.9375 17.5341C48.6705 16.9659 48.6108 16.25 48.7585 15.3864C48.8778 14.6705 49.1023 14.0597 49.4318 13.554C49.7614 13.0483 50.1705 12.6335 50.6591 12.3097C51.1477 11.9858 51.696 11.7386 52.304 11.5682C52.9176 11.392 53.5653 11.2784 54.2472 11.2273C54.9858 11.1705 55.5852 11.0994 56.0455 11.0142C56.5057 10.929 56.8494 10.8125 57.0767 10.6648C57.304 10.517 57.4403 10.3182 57.4858 10.0682V10.0341C57.5369 9.69318 57.446 9.43182 57.2131 9.25C56.9858 9.06818 56.6676 8.97727 56.2585 8.97727C55.8153 8.97727 55.4318 9.07386 55.108 9.26705C54.7898 9.46023 54.571 9.76136 54.4517 10.1705H50.1222C50.304 9.375 50.6761 8.64205 51.2386 7.97159C51.8068 7.29545 52.5597 6.75568 53.4972 6.35227C54.4403 5.94318 55.5653 5.73864 56.8722 5.73864C57.804 5.73864 58.6222 5.84943 59.3267 6.07102C60.0313 6.28693 60.6136 6.59091 61.0739 6.98295C61.5398 7.36932 61.8665 7.82386 62.054 8.34659C62.2472 8.86364 62.2926 9.42614 62.1903 10.0341L60.6903 19H56.2926L56.5994 17.1591H56.4972C56.1563 17.6477 55.7727 18.0426 55.3466 18.3438C54.9261 18.6449 54.4659 18.8636 53.9659 19C53.4716 19.1364 52.9403 19.2045 52.3722 19.2045ZM54.4176 16.2386C54.7699 16.2386 55.1165 16.1648 55.4574 16.017C55.7983 15.8693 56.0909 15.6562 56.3352 15.3778C56.5795 15.0994 56.7358 14.7614 56.804 14.3636L56.9744 13.2727C56.8494 13.3239 56.7102 13.3722 56.5568 13.4176C56.4091 13.4574 56.2528 13.4972 56.0881 13.5369C55.929 13.5767 55.7585 13.6136 55.5767 13.6477C55.4006 13.6818 55.2188 13.7159 55.0312 13.75C54.6562 13.8068 54.3409 13.9006 54.0852 14.0312C53.8295 14.1562 53.6307 14.3125 53.4886 14.5C53.3466 14.6818 53.2585 14.8864 53.2244 15.1136C53.1733 15.4716 53.2557 15.75 53.4716 15.9489C53.6932 16.142 54.0085 16.2386 54.4176 16.2386ZM62.9382 19L65.12 5.90909H69.6882L69.2791 8.39773H69.4155C69.8075 7.47727 70.299 6.80398 70.8899 6.37784C71.4808 5.9517 72.1257 5.73864 72.8246 5.73864C73.0291 5.73864 73.2251 5.75568 73.4126 5.78977C73.6058 5.81818 73.7962 5.85795 73.9837 5.90909L73.3018 9.93182C73.0803 9.84659 72.8047 9.78693 72.4751 9.75284C72.1456 9.71307 71.853 9.69318 71.5973 9.69318C71.1428 9.69318 70.7166 9.7983 70.3189 10.0085C69.9268 10.2131 69.5916 10.5028 69.3132 10.8778C69.0405 11.2472 68.8587 11.6818 68.7678 12.1818L67.6428 19H62.9382ZM73.3445 19L75.5263 5.90909H80.2308L78.049 19H73.3445ZM78.0831 4.54545C77.4467 4.54545 76.9325 4.33523 76.5405 3.91477C76.1484 3.48864 76.0036 2.98295 76.1058 2.39773C76.2081 1.80114 76.5206 1.29545 77.0433 0.880681C77.5661 0.460227 78.1456 0.25 78.782 0.25C79.424 0.25 79.9354 0.460227 80.3161 0.880681C80.6967 1.29545 80.8388 1.80114 80.7422 2.39773C80.6513 2.98295 80.3445 3.48864 79.8217 3.91477C79.3047 4.33523 78.7251 4.54545 78.0831 4.54545ZM86.7188 19.2386C85.2983 19.2386 84.1278 18.9574 83.2074 18.3949C82.2926 17.8267 81.6506 17.0369 81.2812 16.0256C80.9119 15.0085 80.8381 13.8295 81.0597 12.4886C81.2813 11.1477 81.7443 9.97159 82.4489 8.96023C83.1534 7.94318 84.0597 7.15341 85.1676 6.59091C86.2756 6.02273 87.5426 5.73864 88.9688 5.73864C90.3835 5.73864 91.5483 6.02273 92.4631 6.59091C93.3835 7.15341 94.0284 7.94318 94.3977 8.96023C94.7727 9.97159 94.8494 11.1477 94.6278 12.4886C94.4063 13.8295 93.9403 15.0085 93.2301 16.0256C92.5199 17.0369 91.6108 17.8267 90.5028 18.3949C89.4006 18.9574 88.1392 19.2386 86.7188 19.2386ZM87.2983 15.7614C87.7074 15.7614 88.0795 15.6278 88.4148 15.3608C88.7557 15.0937 89.0455 14.7131 89.2841 14.2188C89.5284 13.7244 89.7074 13.1364 89.821 12.4545C89.9347 11.767 89.9517 11.179 89.8722 10.6903C89.7926 10.196 89.6278 9.81534 89.3778 9.5483C89.1278 9.28125 88.7983 9.14773 88.3892 9.14773C87.9801 9.14773 87.6051 9.28125 87.2642 9.5483C86.9233 9.81534 86.6335 10.196 86.3949 10.6903C86.1563 11.179 85.9801 11.767 85.8665 12.4545C85.7528 13.1364 85.733 13.7244 85.8068 14.2188C85.8864 14.7131 86.0511 15.0937 86.3011 15.3608C86.5568 15.6278 86.8892 15.7614 87.2983 15.7614Z" fill="white"/>
</svg>
